<?xml version="1.0" encoding="UTF-8" standalone="no"?><!DOCTYPE svg PUBLIC "-//W3C//DTD SVG 1.1//EN" "http://www.w3.org/Graphics/SVG/1.1/DTD/svg11.dtd"><svg width="100%" height="100%" viewBox="0 0 24 24" version="1.1" xmlns="http://www.w3.org/2000/svg" xmlns:xlink="http://www.w3.org/1999/xlink" xml:space="preserve" xmlns:serif="http://www.serif.com/" style="fill-rule:evenodd;clip-rule:evenodd;stroke-linejoin:round;stroke-miterlimit:1.41421;"><path d="M8.84,10.835l-1.965,0l0,-1.859l1.783,0c1.878,0 1.646,1.859 0.182,1.859Zm5.789,1.058l2.624,0c-0.115,-1.687 -2.36,-1.81 -2.624,0Zm-5.9,0.396l-1.854,0l0,1.947l1.824,0c1.782,-0.001 1.673,-1.947 0.03,-1.947Zm15.271,-0.289c0,6.627 -5.373,12 -12,12c-6.627,0 -12,-5.373 -12,-12c0,-6.627 5.373,-12 12,-12c6.627,0 12,5.373 12,12Zm-13.357,-0.733c1.668,-0.853 1.607,-3.981 -1.587,-4.028l-4.056,0l0,8.73l3.771,0c3.958,0 3.891,-3.967 1.872,-4.702Zm3.357,-3.166l4,0l0,-0.875l-4,0l0,0.875Zm4.943,3.693c-0.545,-3.505 -6.053,-3.711 -6.053,0.872c0,4.526 5.18,3.818 5.949,1.56l-1.848,0c-0.645,0.748 -2.508,0.531 -2.404,-1.184l4.41,0c0.009,-0.555 -0.009,-0.953 -0.054,-1.248Z" style="fill:#5d5bb5;fill-rule:nonzero;"/></svg>