<?xml version="1.0" encoding="UTF-8" standalone="no"?><!DOCTYPE svg PUBLIC "-//W3C//DTD SVG 1.1//EN" "http://www.w3.org/Graphics/SVG/1.1/DTD/svg11.dtd"><svg width="100%" height="100%" viewBox="0 0 24 24" version="1.1" xmlns="http://www.w3.org/2000/svg" xmlns:xlink="http://www.w3.org/1999/xlink" xml:space="preserve" xmlns:serif="http://www.serif.com/" style="fill-rule:evenodd;clip-rule:evenodd;stroke-linejoin:round;stroke-miterlimit:1.41421;"><path d="M12,0c-6.627,0 -12,5.373 -12,12c0,6.627 5.373,12 12,12c6.627,0 12,-5.373 12,-12c0,-6.627 -5.373,-12 -12,-12Zm-2,16l-2,0l0,-6l2,0l0,6Zm-1,-6.891c-0.607,0 -1.1,-0.496 -1.1,-1.109c0,-0.612 0.492,-1.109 1.1,-1.109c0.608,0 1.1,0.497 1.1,1.109c0,0.613 -0.493,1.109 -1.1,1.109Zm8,6.891l-1.998,0l0,-2.861c0,-1.881 -2.002,-1.722 -2.002,0l0,2.861l-2,0l0,-6l2,0l0,1.093c0.872,-1.616 4,-1.736 4,1.548l0,3.359Z" style="fill:#5d5bb5;fill-rule:nonzero;"/></svg>